<svg width="246" height="50" viewBox="0 0 246 50" fill="none" xmlns="https://www.w3.org/2000/svg">
<path fill-rule="evenodd" clip-rule="evenodd" d="M245.455 0V50H222.727V0H245.455Z" fill="#FF5851"/>
<path d="M13.1182 13.8007C17.2914 13.8007 20.6118 14.8229 23.0794 16.8675C25.5833 18.8755 27.1618 21.5407 27.815 24.8631H16.5475C16.0757 23.1106 14.8419 22.2344 12.8461 22.2344C11.7211 22.2344 11.1587 22.6725 11.1587 23.5487C11.1587 24.1694 11.5578 24.644 12.3562 24.9726C13.1908 25.3012 14.4972 25.648 16.2753 26.0131C18.5978 26.4513 20.5755 26.9806 22.2085 27.6013C23.8777 28.1855 25.3111 29.153 26.5087 30.5038C27.7062 31.8547 28.3049 33.6984 28.3049 36.035C28.3049 37.8605 27.7969 39.4852 26.7808 40.9091C25.7647 42.333 24.2769 43.4465 22.3173 44.2497C20.3578 45.0529 18.0535 45.4545 15.4044 45.4545C10.9772 45.4545 7.45726 44.5053 4.8445 42.6068C2.23173 40.7083 0.616902 37.9701 0 34.3921H11.5941C11.8119 36.1811 13.0638 37.0756 15.35 37.0756C16.5838 37.0756 17.2007 36.6375 17.2007 35.7612C17.2007 35.0675 16.7834 34.5564 15.9487 34.2278C15.1141 33.8992 13.7714 33.5706 11.9207 33.2421C9.56198 32.7674 7.60241 32.2563 6.04201 31.7086C4.5179 31.161 3.17523 30.23 2.014 28.9157C0.852777 27.6013 0.272163 25.7941 0.272163 23.494C0.272163 21.632 0.762056 19.9708 1.74184 18.5104C2.72163 17.05 4.17316 15.9 6.09645 15.0602C8.01973 14.2205 10.3603 13.8007 13.1182 13.8007Z" fill="#191919"/>
<path d="M41.4287 13.8007C43.4246 13.8007 45.1301 14.2205 46.5454 15.0602C47.9969 15.8635 49.1037 16.977 49.8657 18.4009V4.54545H61.9498V45.0712H49.8657V40.8543C49.1037 42.2782 47.9969 43.41 46.5454 44.2497C45.1301 45.0529 43.4246 45.4545 41.4287 45.4545C39.0337 45.4545 36.8745 44.8339 34.9512 43.5925C33.0279 42.3147 31.5038 40.4892 30.3789 38.1161C29.2902 35.7065 28.7459 32.877 28.7459 29.6276C28.7459 26.3782 29.2902 23.567 30.3789 21.1939C31.5038 18.7842 33.0279 16.9587 34.9512 15.7174C36.8745 14.4396 39.0337 13.8007 41.4287 13.8007ZM45.4567 24.425C44.1503 24.425 43.0798 24.8813 42.2452 25.7941C41.4106 26.7068 40.9932 27.9847 40.9932 29.6276C40.9932 31.2705 41.4106 32.5484 42.2452 33.4611C43.0798 34.3739 44.1503 34.8302 45.4567 34.8302C46.7631 34.8302 47.8336 34.3739 48.6682 33.4611C49.5029 32.5484 49.9202 31.2705 49.9202 29.6276C49.9202 27.9847 49.5029 26.7068 48.6682 25.7941C47.8336 24.8813 46.7631 24.425 45.4567 24.425Z" fill="#191919"/>
<path d="M77.2827 13.8007C81.4559 13.8007 84.7763 14.8229 87.2439 16.8675C89.7478 18.8755 91.3263 21.5407 91.9795 24.8631H80.712C80.2402 23.1106 79.0064 22.2344 77.0106 22.2344C75.8856 22.2344 75.3232 22.6725 75.3232 23.5487C75.3232 24.1694 75.7223 24.644 76.5207 24.9726C77.3553 25.3012 78.6617 25.648 80.4398 26.0131C82.7623 26.4513 84.74 26.9806 86.373 27.6013C88.0422 28.1855 89.4756 29.153 90.6731 30.5038C91.8707 31.8547 92.4694 33.6984 92.4694 36.035C92.4694 37.8605 91.9614 39.4852 90.9453 40.9091C89.9292 42.333 88.4414 43.4465 86.4818 44.2497C84.5223 45.0529 82.218 45.4545 79.5689 45.4545C75.1417 45.4545 71.6218 44.5053 69.009 42.6068C66.3962 40.7083 64.7814 37.9701 64.1645 34.3921H75.7586C75.9764 36.1811 77.2283 37.0756 79.5145 37.0756C80.7483 37.0756 81.3652 36.6375 81.3652 35.7612C81.3652 35.0675 80.9479 34.5564 80.1132 34.2278C79.2786 33.8992 77.9359 33.5706 76.0852 33.2421C73.7265 32.7674 71.7669 32.2563 70.2065 31.7086C68.6824 31.161 67.3397 30.23 66.1785 28.9157C65.0173 27.6013 64.4367 25.7941 64.4367 23.494C64.4367 21.632 64.9265 19.9708 65.9063 18.5104C66.8861 17.05 68.3377 15.9 70.2609 15.0602C72.1842 14.2205 74.5248 13.8007 77.2827 13.8007Z" fill="#191919"/>
<path d="M106.627 4.54545V45.0712H94.5434V4.54545H106.627Z" fill="#191919"/>
<path d="M120.958 13.8007C122.953 13.8007 124.677 14.2205 126.129 15.0602C127.58 15.8635 128.687 16.977 129.449 18.4009V14.184H141.479V45.0712H129.449V40.8543C128.687 42.2782 127.58 43.41 126.129 44.2497C124.677 45.0529 122.953 45.4545 120.958 45.4545C118.563 45.4545 116.403 44.8339 114.48 43.5925C112.557 42.3147 111.033 40.4892 109.908 38.1161C108.819 35.7065 108.275 32.877 108.275 29.6276C108.275 26.3782 108.819 23.567 109.908 21.1939C111.033 18.7842 112.557 16.9587 114.48 15.7174C116.403 14.4396 118.563 13.8007 120.958 13.8007ZM124.986 24.425C123.679 24.425 122.609 24.8813 121.774 25.7941C120.939 26.7068 120.522 27.9847 120.522 29.6276C120.522 31.2705 120.939 32.5484 121.774 33.4611C122.609 34.3739 123.679 34.8302 124.986 34.8302C126.292 34.8302 127.363 34.3739 128.197 33.4611C129.032 32.5484 129.449 31.2705 129.449 29.6276C129.449 27.9847 129.032 26.7068 128.197 25.7941C127.363 24.8813 126.292 24.425 124.986 24.425Z" fill="#191919"/>
<path d="M165.249 13.8007C167.644 13.8007 169.803 14.4396 171.726 15.7174C173.649 16.9587 175.155 18.7842 176.244 21.1939C177.369 23.567 177.932 26.3782 177.932 29.6276C177.932 32.877 177.369 35.7065 176.244 38.1161C175.155 40.4892 173.649 42.3147 171.726 43.5925C169.803 44.8339 167.644 45.4545 165.249 45.4545C163.253 45.4545 161.529 45.0529 160.078 44.2497C158.662 43.41 157.574 42.2782 156.812 40.8543V45.0712H144.728V4.54545H156.812V18.4009C157.574 16.977 158.662 15.8635 160.078 15.0602C161.529 14.2205 163.253 13.8007 165.249 13.8007ZM161.221 24.425C159.914 24.425 158.844 24.8813 158.009 25.7941C157.175 26.7068 156.757 27.9847 156.757 29.6276C156.757 31.2705 157.175 32.5484 158.009 33.4611C158.844 34.3739 159.914 34.8302 161.221 34.8302C162.527 34.8302 163.598 34.3739 164.432 33.4611C165.267 32.5484 165.684 31.2705 165.684 29.6276C165.684 27.9847 165.267 26.7068 164.432 25.7941C163.598 24.8813 162.527 24.425 161.221 24.425Z" fill="#191919"/>
<path d="M191.631 13.8007C195.805 13.8007 199.125 14.8229 201.593 16.8675C204.097 18.8755 205.675 21.5407 206.328 24.8631H195.061C194.589 23.1106 193.355 22.2344 191.359 22.2344C190.234 22.2344 189.672 22.6725 189.672 23.5487C189.672 24.1694 190.071 24.644 190.869 24.9726C191.704 25.3012 193.01 25.648 194.789 26.0131C197.111 26.4513 199.089 26.9806 200.722 27.6013C202.391 28.1855 203.824 29.153 205.022 30.5038C206.219 31.8547 206.818 33.6984 206.818 36.035C206.818 37.8605 206.31 39.4852 205.294 40.9091C204.278 42.333 202.79 43.4465 200.831 44.2497C198.871 45.0529 196.567 45.4545 193.918 45.4545C189.49 45.4545 185.971 44.5053 183.358 42.6068C180.745 40.7083 179.13 37.9701 178.513 34.3921H190.107C190.325 36.1811 191.577 37.0756 193.863 37.0756C195.097 37.0756 195.714 36.6375 195.714 35.7612C195.714 35.0675 195.297 34.5564 194.462 34.2278C193.627 33.8992 192.285 33.5706 190.434 33.2421C188.075 32.7674 186.116 32.2563 184.555 31.7086C183.031 31.161 181.688 30.23 180.527 28.9157C179.366 27.6013 178.785 25.7941 178.785 23.494C178.785 21.632 179.275 19.9708 180.255 18.5104C181.235 17.05 182.686 15.9 184.61 15.0602C186.533 14.2205 188.874 13.8007 191.631 13.8007Z" fill="#191919"/>
</svg>
